<?xml version="1.0" standalone="no"?>
<!DOCTYPE svg PUBLIC "-//W3C//DTD SVG 20010904//EN"
 "http://www.w3.org/TR/2001/REC-SVG-20010904/DTD/svg10.dtd">
<svg version="1.0" xmlns="http://www.w3.org/2000/svg"
 width="357.000000pt" height="477.000000pt" viewBox="0 0 357.000000 477.000000"
 preserveAspectRatio="xMidYMid meet">

<g transform="translate(0.000000,477.000000) scale(0.100000,-0.100000)"
fill="#000000" stroke="none">
<path d="M570 2470 l0 -1960 1205 0 1205 0 0 1960 0 1960 -200 0 -200 0 0
-405 0 -405 -797 2 -798 3 0 403 0 402 -207 0 -208 0 0 -1960z m1245 768 c14
-29 25 -59 25 -65 0 -18 -17 -16 -24 2 -3 9 -18 15 -36 15 -20 0 -30 -5 -30
-15 0 -8 -6 -15 -14 -15 -12 0 -9 13 10 62 13 34 24 63 24 65 0 2 5 3 10 3 6
0 22 -24 35 -52z m-400 23 c-8 -14 -35 -14 -35 0 0 5 4 8 9 4 5 -3 13 0 16 6
4 5 9 8 12 5 3 -2 2 -9 -2 -15z m300 -16 c0 -24 -6 -32 -30 -40 -24 -8 -29
-15 -27 -34 3 -16 -1 -22 -10 -19 -8 3 -14 26 -16 67 l-4 62 44 -3 c40 -3 43
-5 43 -33z m177 -20 c-4 -50 -3 -55 16 -55 18 0 21 7 24 52 2 30 8 53 15 56
10 3 11 -11 6 -58 -6 -57 -5 -62 13 -58 10 2 20 10 21 18 14 113 31 121 27 14
-1 -42 -5 -78 -8 -81 -3 -4 -6 1 -6 10 0 18 -22 25 -90 29 l-45 3 3 45 c4 54
11 80 21 80 4 0 6 -25 3 -55z m-292 35 c0 -5 -6 -9 -12 -7 -24 4 -20 -43 7
-74 33 -40 24 -51 -13 -16 -36 34 -42 34 -42 -3 0 -42 -17 -37 -24 8 -4 20 -9
49 -12 65 -7 34 13 37 22 2 8 -32 24 -33 24 -2 0 13 3 27 7 30 10 11 43 8 43
-3z m490 -7 c0 -5 -5 -26 -9 -48 l-10 -40 38 44 c24 26 41 39 45 32 9 -14 -14
-131 -25 -131 -11 0 -11 17 0 58 12 41 3 41 -32 -3 -28 -35 -64 -49 -54 -21 3
8 9 32 12 53 4 21 8 44 10 51 5 13 25 17 25 5z m-617 -63 c20 -68 21 -80 7
-80 -5 0 -12 17 -16 38 -11 60 -18 61 -29 3 -11 -61 -29 -76 -39 -35 -4 15
-15 45 -25 65 -11 21 -16 40 -13 43 12 12 21 5 27 -23 3 -16 12 -35 20 -41 10
-9 14 -1 20 40 4 27 12 50 18 50 7 0 20 -27 30 -60z m784 38 c-3 -8 -6 -5 -6
6 -1 11 2 17 5 13 3 -3 4 -12 1 -19z m33 2 c0 -5 -5 -10 -11 -10 -5 0 -7 5 -4
10 3 6 8 10 11 10 2 0 4 -4 4 -10z m-76 -46 c-8 -20 -13 -38 -11 -40 3 -3 18
7 35 21 24 20 62 34 62 22 0 -18 -49 -121 -56 -117 -5 3 -8 7 -7 10 1 3 9 22
18 43 15 36 15 38 -2 28 -10 -5 -27 -19 -37 -30 -11 -12 -27 -21 -37 -21 -17
0 -17 3 3 60 12 33 28 60 34 60 10 0 9 -9 -2 -36z m-875 -49 c44 -44 50 -71
10 -47 -25 16 -59 0 -59 -28 0 -11 -4 -20 -10 -20 -5 0 -10 11 -10 24 0 13 -3
44 -6 70 -6 41 -5 46 12 46 11 0 39 -20 63 -45z m-89 -105 c0 -17 -19 -11 -30
10 -12 23 -33 26 -49 7 -8 -10 -7 -19 4 -33 18 -24 19 -34 3 -34 -18 1 -80
104 -66 109 6 2 17 -4 24 -13 10 -14 16 -15 33 -6 24 12 26 21 10 37 -6 6 -8
16 -4 23 7 12 75 -78 75 -100z m1181 89 c32 -22 36 -40 15 -58 -8 -7 -12 -20
-9 -30 11 -42 -47 -51 -94 -14 l-22 18 32 52 c18 29 36 53 40 53 5 0 22 -9 38
-21z m99 -65 c0 -3 -12 -21 -26 -40 -31 -40 -30 -40 27 -15 31 14 47 17 56 9
10 -8 3 -20 -27 -52 -22 -22 -40 -44 -40 -48 0 -5 -7 -8 -15 -8 -23 0 -18 13
20 50 19 18 33 35 31 37 -2 2 -26 -7 -54 -20 -71 -35 -82 -18 -30 44 37 44 58
60 58 43z m-1463 -79 l48 -44 -50 -51 c-27 -27 -52 -50 -56 -50 -4 0 -29 19
-55 43 -30 28 -44 46 -36 51 6 4 28 -9 50 -29 22 -19 44 -35 50 -35 25 0 16
28 -22 64 -26 26 -36 41 -27 44 7 2 29 -11 49 -31 34 -32 62 -39 62 -16 0 5
-18 25 -40 45 -22 20 -37 40 -34 45 8 13 10 12 61 -36z m918 11 c161 -43 331
-162 429 -300 179 -252 175 -604 -9 -856 -45 -62 -149 -159 -215 -203 -126
-83 -322 -134 -465 -122 -224 18 -386 94 -532 249 -137 145 -199 302 -197 506
1 134 17 208 74 325 98 205 295 357 530 410 83 19 300 14 385 -9z m688 -89
c-3 -6 -16 2 -28 17 -17 22 -24 24 -33 14 -8 -10 -6 -20 8 -38 25 -32 25 -57
0 -70 -16 -9 -26 -5 -57 25 l-38 35 50 45 50 45 27 -31 c15 -18 24 -37 21 -42z
m57 -49 c-1 -18 -91 -88 -104 -81 -5 4 13 26 40 49 52 46 64 52 64 32z m-1772
-27 c23 -7 40 -16 36 -22 -3 -5 -14 -7 -24 -4 -26 8 -53 -31 -37 -56 19 -31
-1 -34 -25 -3 -71 90 -77 122 -19 104 14 -4 45 -13 69 -19z m1819 -49 c16 -27
19 -42 12 -55 -14 -24 -54 -21 -71 4 -12 18 -17 20 -35 10 -32 -17 -38 4 -8
26 14 10 36 26 48 35 30 23 30 23 54 -20z m-1931 -37 c4 -8 16 -15 29 -15 32
0 36 -20 15 -68 -21 -47 -25 -47 -96 -2 l-41 26 18 24 c34 45 40 50 55 50 8 0
17 -7 20 -15z m1973 -70 c-36 -19 -69 -27 -69 -18 0 11 73 41 84 35 5 -3 -2
-10 -15 -17z m-89 -45 c0 -5 -4 -10 -10 -10 -5 0 -10 5 -10 10 0 6 5 10 10 10
6 0 10 -4 10 -10z m-1406 -1234 c68 -28 85 -92 39 -147 -21 -25 -24 -34 -13
-37 34 -12 60 -51 60 -92 0 -32 -7 -48 -34 -78 l-34 -37 -156 -3 -156 -3 0
205 0 206 130 0 c89 0 141 -4 164 -14z m350 -129 c22 -75 43 -134 47 -130 4 5
25 67 46 138 l39 130 67 3 67 3 0 -206 0 -205 -40 0 -39 0 -3 158 c-2 86 -6
150 -10 142 -3 -8 -25 -79 -49 -157 l-42 -143 -43 0 c-29 0 -44 4 -44 12 0 21
-84 298 -88 293 -3 -3 -4 -72 -3 -155 l2 -150 -40 0 -41 0 0 205 0 206 67 -3
67 -3 40 -138z m426 91 c35 -162 53 -227 61 -222 5 3 9 11 9 18 0 14 37 133
67 214 l16 42 52 0 53 0 17 -67 c35 -134 63 -218 68 -203 3 8 20 72 38 143
l33 127 43 0 c25 0 43 -5 43 -11 0 -6 -23 -90 -51 -187 -28 -98 -54 -185 -56
-194 -4 -14 -16 -18 -53 -18 l-47 0 -36 123 c-20 67 -39 134 -43 150 -3 15 -9
27 -13 27 -4 0 -29 -67 -55 -150 l-47 -150 -49 0 c-48 0 -49 1 -59 38 -74 285
-91 353 -91 362 0 5 20 10 44 10 l44 0 12 -52z m-771 -595 c7 10 18 17 23 17
6 0 5 -6 -1 -14 -10 -12 -9 -20 4 -40 21 -32 3 -35 -18 -3 l-15 22 -10 -25
c-9 -21 -11 -14 -10 40 1 53 2 58 7 26 5 -35 7 -38 20 -23z m-161 28 c3 -9 -2
-11 -17 -6 -12 4 -21 2 -21 -4 0 -6 6 -11 14 -11 23 0 35 -23 25 -48 -6 -17
-15 -22 -31 -20 -19 2 -24 10 -26 41 -2 21 2 45 9 53 14 17 40 15 47 -5z m81
-3 c4 -12 5 -35 1 -52 -4 -25 -11 -31 -30 -31 -22 0 -25 5 -28 39 -2 21 -1 44
2 52 8 22 46 17 55 -8z m209 -58 c-3 -52 -4 -55 -32 -58 -16 -2 -34 2 -40 8
-8 9 -4 11 20 6 24 -5 33 -3 38 9 4 13 1 15 -13 10 -19 -6 -51 17 -51 36 0 27
21 46 50 45 l31 -1 -3 -55z m741 3 c-15 -18 -34 -1 -25 22 5 14 9 15 21 5 12
-10 13 -16 4 -27z m-1357 20 c-6 -2 -9 -10 -6 -15 4 -7 2 -8 -5 -4 -13 9 -5
26 12 25 9 0 8 -2 -1 -6z m1599 -3 c15 9 17 8 12 -6 -3 -9 0 -20 8 -25 10 -6
11 -9 1 -9 -7 0 -15 7 -18 15 -5 13 -10 13 -35 -1 -33 -16 -50 -12 -48 14 1
15 2 15 6 0 2 -10 9 -18 14 -18 5 0 9 8 9 18 0 14 2 15 10 2 8 -12 10 -12 11
5 0 11 3 14 6 8 3 -9 10 -10 24 -3z m-92 -34 c-3 -3 -11 5 -18 17 -13 21 -12
21 5 5 10 -10 16 -20 13 -22z m138 2 c-3 -7 -5 -2 -5 12 0 14 2 19 5 13 2 -7
2 -19 0 -25z m97 20 c-3 -5 -10 -6 -15 -3 -5 4 -9 1 -9 -4 0 -16 21 -13 42 5
16 15 18 15 23 1 4 -9 16 -14 31 -12 14 1 22 0 19 -3 -3 -3 -32 -7 -65 -8 -52
-1 -60 1 -60 17 0 11 7 17 19 16 11 0 17 -5 15 -9z m-524 -14 c0 -8 -4 -12
-10 -9 -5 3 -10 10 -10 16 0 5 5 9 10 9 6 0 10 -7 10 -16z m-1185 -4 c3 -5 1
-10 -4 -10 -6 0 -11 5 -11 10 0 6 2 10 4 10 3 0 8 -4 11 -10z m1299 -31 c-8
-13 -24 -1 -24 18 0 13 3 13 15 3 8 -7 12 -16 9 -21z m42 6 c-3 -9 -11 -13
-16 -10 -8 5 -7 11 1 21 14 18 24 11 15 -11z"/>
<path d="M1768 3235 c-4 -20 -1 -25 14 -25 14 0 18 5 14 16 -3 9 -6 20 -6 25
0 20 -18 7 -22 -16z"/>
<path d="M1652 3248 c4 -30 43 -33 43 -3 0 13 -8 21 -23 23 -20 3 -23 0 -20
-20z"/>
<path d="M1280 3126 c0 -19 4 -23 20 -19 23 6 25 14 8 31 -18 18 -28 14 -28
-12z"/>
<path d="M2389 3104 c-10 -13 -10 -17 2 -25 21 -13 49 -11 49 4 0 7 -9 18 -19
24 -16 10 -22 9 -32 -3z"/>
<path d="M2361 3052 c-8 -16 -5 -22 15 -32 18 -10 27 -11 35 -3 13 13 5 29
-21 43 -15 8 -21 6 -29 -8z"/>
<path d="M1677 2988 c-170 -15 -343 -103 -469 -237 -82 -87 -133 -175 -170
-291 -20 -64 -23 -95 -22 -210 1 -116 4 -146 26 -212 80 -241 267 -419 515
-490 103 -29 305 -32 403 -5 318 86 548 359 567 674 15 240 -79 454 -265 605
-80 64 -201 126 -287 148 -72 18 -208 26 -298 18z m280 -48 c246 -63 437 -247
504 -485 33 -114 32 -271 0 -375 -43 -138 -97 -226 -199 -321 -175 -164 -408
-231 -643 -185 -103 21 -242 87 -320 153 -113 97 -202 240 -235 378 -18 78
-18 233 1 313 51 216 227 418 427 491 64 23 162 49 203 54 59 7 190 -5 262
-23z"/>
<path d="M1670 2831 l0 -98 24 4 c22 5 25 11 28 52 l4 46 14 -48 c13 -42 17
-48 39 -45 20 2 29 13 42 48 l17 45 4 -49 c2 -38 7 -50 20 -52 10 -1 21 2 24
7 5 8 7 91 5 172 -1 14 -8 18 -32 15 -27 -3 -34 -10 -54 -58 l-23 -55 -26 58
c-22 51 -28 57 -55 57 l-31 0 0 -99z"/>
<path d="M2143 2701 c-49 -75 -51 -80 -34 -95 17 -15 22 -15 65 4 26 11 50 20
53 20 3 0 -10 -19 -30 -43 l-35 -43 20 -24 19 -23 80 38 c54 27 79 45 79 56 0
27 -12 29 -58 9 -23 -11 -42 -17 -42 -14 0 3 12 21 26 40 45 59 10 91 -62 56
-24 -12 -44 -20 -44 -17 0 3 13 24 30 47 28 38 29 42 12 54 -9 7 -19 13 -22
13 -3 1 -28 -35 -57 -78z"/>
<path d="M1312 2741 c-20 -5 -123 -116 -122 -131 1 -3 34 -31 75 -62 l74 -57
55 71 c31 39 56 79 56 89 0 25 -30 51 -51 46 -12 -3 -20 2 -24 14 -8 25 -34
37 -63 30z m28 -63 c0 -5 -12 -25 -26 -43 -22 -30 -28 -33 -45 -22 -25 16 -24
19 10 56 27 29 61 34 61 9z m63 -34 c8 -8 -9 -42 -36 -71 -19 -21 -22 -22 -38
-7 -17 16 -17 18 8 50 23 32 51 43 66 28z"/>
<path d="M1680 2699 c-121 -23 -267 -134 -323 -245 -47 -94 -60 -221 -32 -324
17 -64 18 -71 5 -49 -8 15 -21 13 -117 -17 -114 -34 -116 -36 -90 -88 l13 -24
100 46 c54 26 102 51 105 56 4 4 19 -12 33 -37 33 -55 119 -138 174 -166 235
-120 527 -23 641 212 123 252 -32 574 -305 632 -76 16 -135 17 -204 4z m90
-229 l0 -210 -219 0 -218 0 8 48 c14 75 72 181 131 240 56 56 149 107 221 121
84 17 77 36 77 -199z m440 -233 c0 -32 -33 -135 -57 -180 -30 -55 -116 -138
-172 -167 -41 -20 -147 -50 -180 -50 -21 0 -21 3 -21 204 0 182 2 205 16 208
10 2 106 2 215 0 151 -2 199 -6 199 -15z"/>
<path d="M1230 2134 c-41 -7 -90 -16 -109 -19 -43 -7 -43 -7 -35 -39 4 -18 11
-25 21 -22 8 4 57 18 109 34 72 21 94 31 94 45 0 9 -1 17 -2 16 -2 -1 -37 -7
-78 -15z"/>
<path d="M2180 2019 c-7 -11 -10 -22 -8 -24 18 -17 164 -125 170 -125 7 0 38
52 38 63 0 7 -169 107 -180 107 -5 0 -14 -9 -20 -21z"/>
<path d="M2146 1965 c-8 -22 -8 -22 77 -93 67 -55 76 -60 88 -46 14 18 12 20
-95 109 -58 49 -62 50 -70 30z"/>
<path d="M2572 2888 c-14 -18 11 -53 33 -45 20 8 19 20 -4 41 -14 13 -20 14
-29 4z"/>
<path d="M880 2812 c0 -4 7 -15 14 -25 11 -15 15 -15 25 -3 7 8 8 16 4 19 -20
11 -43 16 -43 9z"/>
<path d="M2730 2764 c-11 -12 -10 -18 3 -32 21 -21 42 -3 32 27 -8 25 -18 27
-35 5z"/>
<path d="M799 2709 c-16 -30 5 -51 25 -24 14 19 11 45 -5 45 -4 0 -13 -9 -20
-21z"/>
<path d="M839 2679 c-9 -17 -8 -23 2 -30 15 -9 39 14 39 38 0 21 -28 15 -41
-8z"/>
<path d="M1120 1287 l0 -54 78 5 c87 5 104 14 100 51 -4 35 -40 51 -115 51
l-63 0 0 -53z"/>
<path d="M1120 1109 l0 -61 86 3 c92 4 114 17 114 65 0 38 -36 54 -122 54
l-78 0 0 -61z"/>
<path d="M1130 725 c0 -8 5 -15 10 -15 6 0 10 7 10 15 0 8 -4 15 -10 15 -5 0
-10 -7 -10 -15z"/>
<path d="M1210 745 c0 -19 5 -35 10 -35 6 0 10 16 10 35 0 19 -4 35 -10 35 -5
0 -10 -16 -10 -35z"/>
<path d="M1404 745 c-7 -18 3 -35 21 -35 15 0 24 19 18 38 -6 17 -32 15 -39
-3z"/>
</g>
</svg>
